PathFileType	4	(X/Y/Z)	s09c0202.trc
DataRate	CameraRate	NumFrames	NumMarkers	Units	OrigDataRate	OrigDataStartFrame	OrigNumFrames
200	200	4	50	mm	200	250	2000
Frame#	Time	racr			lacr			c7			jug			rlel			rdr			llel			ldr			s2			lic			ric			lasi			rasi			rpsi			lpsi			rgt			lgt			rth1			rth2			rth3			rth4			rlfc			rmfc			rsh1			rsh2			rsh3			rsh4			rlmal			rmmal			rcal			rtoe			rmt5			lth1			lth2			lth4			lth3			llfc			lmfc			llmal			lmmal			lcal			lmt5			lsh1			lsh2			lsh3			lsh4			ltoe			SBIKE			LBIKE			RBIKE			
		X1	Y1	Z1	X2	Y2	Z2	X3	Y3	Z3	X4	Y4	Z4	X5	Y5	Z5	X6	Y6	Z6	X7	Y7	Z7	X8	Y8	Z8	X9	Y9	Z9	X10	Y10	Z10	X11	Y11	Z11	X12	Y12	Z12	X13	Y13	Z13	X14	Y14	Z14	X15	Y15	Z15	X16	Y16	Z16	X17	Y17	Z17	X18	Y18	Z18	X19	Y19	Z19	X20	Y20	Z20	X21	Y21	Z21	X22	Y22	Z22	X23	Y23	Z23	X24	Y24	Z24	X25	Y25	Z25	X26	Y26	Z26	X27	Y27	Z27	X28	Y28	Z28	X29	Y29	Z29	X30	Y30	Z30	X31	Y31	Z31	X32	Y32	Z32	X33	Y33	Z33	X34	Y34	Z34	X35	Y35	Z35	X36	Y36	Z36	X37	Y37	Z37	X38	Y38	Z38	X39	Y39	Z39	X40	Y40	Z40	X41	Y41	Z41	X42	Y42	Z42	X43	Y43	Z43	X44	Y44	Z44	X45	Y45	Z45	X46	Y46	Z46	X47	Y47	Z47	X48	Y48	Z48	X49	Y49	Z49	X50	Y50	Z50	
250	1.2500	566.562481	1265.516052	-150.461234	518.718927	1259.523572	-456.729952	533.161962	1283.515146	-307.758475	513.809067	1150.869569	-296.979196	529.014334	1085.552470	32.417732	680.313311	909.321346	-47.466362	479.920142	1013.154221	-580.989932	671.827878	904.354017	-450.594179	43.199589	1135.431755	-252.259597	178.417604	1106.599595	-398.781226	186.585853	1120.628873	-107.161969	213.098517	1044.770375	-373.089524	218.386729	1058.964123	-124.634884	75.895927	1163.622653	-193.890560	76.763098	1163.967827	-303.666523	149.790938	994.315670	-53.001116	132.141431	995.102405	-437.420191	247.722329	895.350047	-62.915999	322.297074	850.634955	-75.763070	361.956331	771.161579	-79.621389	341.966688	869.406829	-100.216218	400.023820	670.379161	-112.834658	374.341881	659.479312	-210.665001	308.939177	622.380572	-80.144444	250.377758	555.442800	-91.669774	166.652772	527.735137	-87.919425	265.873262	536.777211	-123.965894	83.008104	469.547997	-86.459945	91.887299	478.036337	-164.315502	-7.919270	476.693328	-126.115387	222.637767	344.000626	-123.328085	142.160555	369.860416	-59.433794	233.479891	904.743107	-434.724291	313.088571	874.313455	-427.764221	334.532035	901.863692	-411.784177	368.832881	802.937835	-422.468682	435.501360	719.873339	-406.064817	453.571978	708.059451	-307.578482	354.917868	364.054327	-408.341460	379.674551	374.049909	-339.569611	285.569150	329.532712	-370.201040	450.396406	276.352144	-433.811559	412.811328	620.319327	-428.020081	417.536957	534.149976	-418.402980	376.723722	454.942762	-415.335147	442.619619	531.355192	-386.988222	544.583467	288.728072	-367.557013	-64.842102	851.987218	-241.093265	21.138762	83.895871	-442.298472	21.105113	84.065442	-43.902223	
251	1.2550	566.888181	1265.386456	-150.703898	518.997862	1260.344626	-456.934693	533.257794	1283.946293	-307.969627	514.182976	1151.358785	-297.571407	529.275759	1085.690930	32.379201	680.275935	909.337268	-47.208705	480.445261	1014.032161	-581.194207	671.983633	904.552196	-450.386095	43.571237	1135.412638	-252.395952	178.636072	1106.905499	-399.043956	187.011691	1120.314282	-107.481836	213.264570	1044.930089	-373.487275	218.749179	1058.686841	-125.130946	76.230548	1163.554590	-193.972736	76.962802	1164.185820	-303.729284	149.949077	993.536245	-53.369105	132.331864	995.502449	-437.855636	247.286516	894.066650	-63.312105	321.672604	849.027199	-76.166887	360.243619	769.102239	-80.906800	341.497104	867.744548	-100.550933	398.564843	668.754170	-113.405241	372.786925	657.896267	-211.229220	307.617506	620.600877	-80.549428	249.097404	553.486411	-91.969481	165.508215	525.657743	-88.155121	264.737211	534.984370	-124.224660	81.923341	467.256110	-86.584929	91.450360	473.929706	-165.817751	-9.012576	474.079299	-126.056675	222.027678	342.329407	-123.282406	141.352929	367.844068	-59.442587	234.034398	905.604829	-435.208488	313.867433	875.743203	-428.312966	335.130595	903.412614	-412.318428	370.133844	804.676443	-423.137884	437.322070	722.053560	-406.463123	455.503125	710.290617	-307.958805	355.802950	366.251894	-408.199306	379.505794	375.929219	-339.305534	286.381722	332.062481	-370.247126	451.080759	278.493387	-433.808011	414.442409	622.605310	-428.345209	418.874325	536.440786	-418.595311	377.806222	457.388383	-415.477324	443.999888	533.500382	-387.254600	545.281004	290.680305	-367.651012	-64.851752	851.994547	-241.143471	21.125564	83.891028	-442.294650	21.113212	84.055558	-43.910151	
252	1.2600	567.197756	1265.240226	-150.908367	519.286172	1261.090782	-457.064884	533.335301	1284.369370	-308.134013	514.584454	1151.778679	-298.105676	529.430648	1085.805436	32.433156	680.213806	909.386030	-46.845294	481.027473	1014.841195	-581.476061	672.130989	904.789199	-450.254276	43.914558	1135.399156	-252.523373	178.819524	1107.191228	-399.269235	187.353006	1119.828979	-107.878801	213.437293	1045.106766	-373.939568	219.061875	1058.436252	-125.643963	76.541596	1163.447636	-194.085743	77.199604	1164.269262	-303.804659	149.975086	992.698276	-53.768044	132.618716	995.857319	-438.242359	246.861179	892.860868	-63.639705	321.021308	847.298888	-76.471278	359.096106	767.146729	-81.483375	340.964030	866.111322	-100.753678	397.064305	666.827390	-113.989215	371.094187	656.195116	-211.716135	305.914526	618.848902	-80.976726	247.797356	551.460328	-92.239451	164.234161	523.419822	-88.262105	263.370623	532.917632	-124.549253	80.838761	464.764973	-86.592382	87.327531	473.300161	-166.195167	-10.235994	471.281893	-126.088161	221.414463	340.373403	-123.286822	140.661614	365.663586	-59.430165	234.591079	906.486204	-435.666881	314.687796	877.257559	-428.855610	335.707891	905.087308	-412.783247	371.440648	806.580593	-423.749213	439.243256	724.460984	-406.900868	457.487901	712.691508	-308.371245	356.802907	368.688967	-408.081723	379.335474	377.958167	-339.024108	287.226424	334.906768	-370.278556	451.797676	280.878739	-433.910035	416.224844	625.052108	-428.727853	420.321946	538.851175	-418.861463	379.010880	459.920424	-415.608707	445.467591	535.890682	-387.524086	546.083602	292.695151	-367.618932	-64.854216	851.984974	-241.191378	21.126278	83.882893	-442.295363	21.094147	84.073531	-43.940416	
253	1.2650	567.441660	1265.051376	-151.120432	519.591682	1261.690534	-457.160426	533.470538	1284.637237	-308.271436	514.936935	1152.114000	-298.682336	529.493665	1085.903692	32.533194	680.108234	909.424736	-46.528016	481.518918	1015.572224	-581.732433	672.311823	904.976853	-450.214251	44.174578	1135.356039	-252.639323	179.012299	1107.487611	-399.584136	187.693055	1119.489170	-108.229620	213.617911	1045.265821	-374.410799	219.350669	1058.196813	-126.087005	76.820936	1163.347398	-194.197891	77.410918	1164.307702	-303.862115	149.917561	991.910119	-54.190382	132.783967	995.983426	-438.708819	246.263183	891.488442	-64.183457	320.214507	845.571712	-76.811681	357.864221	764.925916	-82.182900	340.338833	864.383975	-100.985012	395.369614	665.100130	-114.757328	369.343456	654.345600	-212.172631	304.328028	616.885455	-81.397449	246.513687	549.308021	-92.432827	162.911408	521.006145	-88.436320	262.084180	530.829520	-124.800283	79.595168	462.104751	-86.737743	85.959800	470.635780	-166.266256	-11.412411	468.340400	-126.138146	220.669888	338.278208	-123.395752	139.886163	363.201323	-59.514195	235.150104	907.398060	-436.062448	315.513840	878.822151	-429.318412	336.281903	906.834288	-413.187506	372.858772	808.736200	-424.337625	441.197831	727.269031	-407.630707	459.595441	715.345422	-308.665706	357.761652	371.335179	-408.015485	379.164630	380.136751	-338.725758	288.080506	337.952998	-370.345520	452.508975	283.366147	-433.904816	418.091285	627.664868	-429.081440	421.880648	541.424056	-419.120360	380.268794	462.650836	-415.750730	447.033165	538.358912	-387.799003	546.798748	294.949088	-367.618598	-64.862322	851.974087	-241.227366	21.133294	83.924809	-442.364062	21.082338	84.077125	-43.953135	
